<svg xmlns="http://www.w3.org/2000/svg" version="1.1" xmlns:xlink="http://www.w3.org/1999/xlink" xmlns:svgjs="http://svgjs.dev/svgjs" width="1000" height="603" viewBox="0 0 1000 603"><g transform="matrix(1,0,0,1,-0.6060606060606233,-0.2467088887724458)"><svg viewBox="0 0 396 239" data-background-color="#ffffff" preserveAspectRatio="xMidYMid meet" height="603" width="1000" xmlns="http://www.w3.org/2000/svg" xmlns:xlink="http://www.w3.org/1999/xlink"><g id="tight-bounds" transform="matrix(1,0,0,1,0.2400000000000091,0.0977834567439686)"><svg viewBox="0 0 395.52 238.80443308651206" height="238.80443308651206" width="395.52"><g><svg viewBox="0 0 395.52 238.80443308651206" height="238.80443308651206" width="395.52"><g transform="matrix(1,0,0,1,0,143.9533684411151)"><svg viewBox="0 0 395.52 94.85106464539696" height="94.85106464539696" width="395.52"><g><svg viewBox="0 0 395.52 94.85106464539696" height="94.85106464539696" width="395.52"><g><svg viewBox="0 0 395.52 54.51294117647059" height="54.51294117647059" width="395.52"><g transform="matrix(1,0,0,1,0,0)"><svg width="395.52" viewBox="4.3 -35.45 262.63 36.2" height="54.51294117647059" data-palette-color="#7a26c1"><path d="M32.75-17.35L32.75-17.35Q32.75-12.85 31.35-9.53 29.95-6.2 27.4-4.03 24.85-1.85 21.3-0.78 17.75 0.3 13.5 0.3L13.5 0.3Q11.4 0.3 8.88 0.13 6.35-0.05 4.3-0.55L4.3-0.55 4.3-34.15Q6.35-34.65 8.88-34.83 11.4-35 13.5-35L13.5-35Q17.75-35 21.3-33.93 24.85-32.85 27.4-30.68 29.95-28.5 31.35-25.18 32.75-21.85 32.75-17.35ZM13.9-3.95L13.9-3.95Q20.8-3.95 24.2-7.48 27.6-11 27.6-17.35L27.6-17.35Q27.6-23.7 24.2-27.23 20.8-30.75 13.9-30.75L13.9-30.75Q11.85-30.75 10.73-30.7 9.6-30.65 9.15-30.6L9.15-30.6 9.15-4.1Q9.6-4.05 10.73-4 11.85-3.95 13.9-3.95ZM62.35 0L39.95 0 39.95-34.65 61.1-34.65 61.1-30.5 44.8-30.5 44.8-20.2 59.3-20.2 59.3-16.15 44.8-16.15 44.8-4.15 62.35-4.15 62.35 0ZM96.95-17.35L96.95-17.35Q96.95-12.85 95.55-9.53 94.15-6.2 91.6-4.03 89.05-1.85 85.5-0.78 81.95 0.3 77.7 0.3L77.7 0.3Q75.6 0.3 73.07 0.13 70.55-0.05 68.5-0.55L68.5-0.55 68.5-34.15Q70.55-34.65 73.07-34.83 75.6-35 77.7-35L77.7-35Q81.95-35 85.5-33.93 89.05-32.85 91.6-30.68 94.15-28.5 95.55-25.18 96.95-21.85 96.95-17.35ZM78.1-3.95L78.1-3.95Q85-3.95 88.4-7.48 91.8-11 91.8-17.35L91.8-17.35Q91.8-23.7 88.4-27.23 85-30.75 78.1-30.75L78.1-30.75Q76.05-30.75 74.92-30.7 73.8-30.65 73.35-30.6L73.35-30.6 73.35-4.1Q73.8-4.05 74.92-4 76.05-3.95 78.1-3.95ZM102.74-17.35L102.74-17.35Q102.74-21.8 104.07-25.2 105.39-28.6 107.67-30.88 109.94-33.15 112.97-34.3 115.99-35.45 119.39-35.45L119.39-35.45Q122.74-35.45 125.72-34.3 128.69-33.15 130.94-30.88 133.19-28.6 134.52-25.2 135.84-21.8 135.84-17.35L135.84-17.35Q135.84-12.9 134.52-9.5 133.19-6.1 130.94-3.83 128.69-1.55 125.72-0.4 122.74 0.75 119.39 0.75L119.39 0.75Q115.99 0.75 112.97-0.4 109.94-1.55 107.67-3.83 105.39-6.1 104.07-9.5 102.74-12.9 102.74-17.35ZM107.84-17.35L107.84-17.35Q107.84-14.2 108.64-11.63 109.44-9.05 110.92-7.25 112.39-5.45 114.52-4.48 116.64-3.5 119.29-3.5L119.29-3.5Q121.94-3.5 124.04-4.48 126.14-5.45 127.62-7.25 129.09-9.05 129.89-11.63 130.69-14.2 130.69-17.35L130.69-17.35Q130.69-20.5 129.89-23.08 129.09-25.65 127.62-27.45 126.14-29.25 124.04-30.23 121.94-31.2 119.29-31.2L119.29-31.2Q116.64-31.2 114.52-30.23 112.39-29.25 110.92-27.45 109.44-25.65 108.64-23.08 107.84-20.5 107.84-17.35ZM157.94 0.75L157.94 0.75Q154.29 0.75 151.29-0.45 148.29-1.65 146.14-3.95 143.99-6.25 142.81-9.63 141.64-13 141.64-17.35L141.64-17.35Q141.64-21.7 142.97-25.08 144.29-28.45 146.54-30.75 148.79-33.05 151.79-34.25 154.79-35.45 158.19-35.45L158.19-35.45Q160.34-35.45 162.06-35.15 163.79-34.85 165.06-34.45 166.34-34.05 167.14-33.65 167.94-33.25 168.24-33.05L168.24-33.05 166.84-29.05Q166.39-29.35 165.54-29.7 164.69-30.05 163.62-30.4 162.54-30.75 161.27-30.98 159.99-31.2 158.69-31.2L158.69-31.2Q155.94-31.2 153.74-30.25 151.54-29.3 149.99-27.5 148.44-25.7 147.62-23.13 146.79-20.55 146.79-17.35L146.79-17.35Q146.79-14.25 147.52-11.7 148.24-9.15 149.69-7.33 151.14-5.5 153.31-4.5 155.49-3.5 158.39-3.5L158.39-3.5Q161.74-3.5 163.94-4.2 166.14-4.9 167.24-5.45L167.24-5.45 168.49-1.45Q168.14-1.2 167.24-0.83 166.34-0.45 164.99-0.1 163.64 0.25 161.84 0.5 160.04 0.75 157.94 0.75ZM171.39-34.65L198.04-34.65 198.04-30.45 187.14-30.45 187.14 0 182.29 0 182.29-30.45 171.39-30.45 171.39-34.65ZM200.39-17.35L200.39-17.35Q200.39-21.8 201.71-25.2 203.04-28.6 205.31-30.88 207.59-33.15 210.61-34.3 213.64-35.45 217.04-35.45L217.04-35.45Q220.39-35.45 223.36-34.3 226.34-33.15 228.59-30.88 230.84-28.6 232.16-25.2 233.49-21.8 233.49-17.35L233.49-17.35Q233.49-12.9 232.16-9.5 230.84-6.1 228.59-3.83 226.34-1.55 223.36-0.4 220.39 0.75 217.04 0.75L217.04 0.75Q213.64 0.75 210.61-0.4 207.59-1.55 205.31-3.83 203.04-6.1 201.71-9.5 200.39-12.9 200.39-17.35ZM205.49-17.35L205.49-17.35Q205.49-14.2 206.29-11.63 207.09-9.05 208.56-7.25 210.04-5.45 212.16-4.48 214.29-3.5 216.94-3.5L216.94-3.5Q219.59-3.5 221.69-4.48 223.79-5.45 225.26-7.25 226.74-9.05 227.54-11.63 228.34-14.2 228.34-17.35L228.34-17.35Q228.34-20.5 227.54-23.08 226.74-25.65 225.26-27.45 223.79-29.25 221.69-30.23 219.59-31.2 216.94-31.2L216.94-31.2Q214.29-31.2 212.16-30.23 210.04-29.25 208.56-27.45 207.09-25.65 206.29-23.08 205.49-20.5 205.49-17.35ZM257.63-14.5L257.63-14.5Q258.43-13.5 259.66-11.88 260.88-10.25 262.18-8.28 263.48-6.3 264.76-4.15 266.03-2 266.93 0L266.93 0 261.63 0Q260.63-1.9 259.46-3.85 258.28-5.8 257.08-7.58 255.88-9.35 254.71-10.9 253.53-12.45 252.58-13.6L252.58-13.6Q251.93-13.55 251.26-13.55 250.58-13.55 249.88-13.55L249.88-13.55 245.53-13.55 245.53 0 240.68 0 240.68-34.15Q242.73-34.65 245.26-34.83 247.78-35 249.88-35L249.88-35Q257.18-35 261.01-32.25 264.83-29.5 264.83-24.05L264.83-24.05Q264.83-20.6 263.01-18.15 261.18-15.7 257.63-14.5ZM250.28-30.75L250.28-30.75Q247.18-30.75 245.53-30.6L245.53-30.6 245.53-17.55 248.98-17.55Q251.48-17.55 253.48-17.8 255.48-18.05 256.86-18.75 258.23-19.45 258.98-20.73 259.73-22 259.73-24.1L259.73-24.1Q259.73-26.05 258.98-27.35 258.23-28.65 256.96-29.4 255.68-30.15 253.96-30.45 252.23-30.75 250.28-30.75Z" opacity="1" transform="matrix(1,0,0,1,0,0)" fill="#7a26c1" class="undefined-text-0" data-fill-palette-color="primary" id="text-0"></path></svg></g></svg></g><g transform="matrix(1,0,0,1,0,67.38213827764706)"><svg viewBox="0 0 395.52 27.468926367749894" height="27.468926367749894" width="395.52"><g transform="matrix(1,0,0,1,0,0)"><svg width="395.52" viewBox="2.65 -37.9 729.23 50.65" height="27.468926367749894" data-palette-color="#7a26c1"><path d="M2.65 0L2.65-2.2Q4.3-2.3 5.03-2.9 5.75-3.5 5.95-4.7 6.15-5.9 6.15-7.75L6.15-7.75 6.15-28.55Q6.15-29.65 6.2-30.68 6.25-31.7 6.3-32.45L6.3-32.45Q5.45-32.4 4.45-32.35 3.45-32.3 2.65-32.25L2.65-32.25 2.65-35 15.4-35.05Q20.05-35.05 23.75-33.85 27.45-32.65 30.05-30.38 32.65-28.1 34-24.85 35.35-21.6 35.35-17.6L35.35-17.6Q35.35-14.25 34.2-11.1 33.05-7.95 30.68-5.48 28.3-3 24.7-1.5 21.1 0 16.2 0L16.2 0 2.65 0ZM11.45-27.3L11.45-6.65Q11.45-5.3 11.43-4.25 11.4-3.2 11.3-2.55L11.3-2.55Q12.35-2.55 13.4-2.53 14.45-2.5 15.28-2.5 16.1-2.5 16.45-2.5L16.45-2.5Q19.55-2.5 21.95-3.65 24.35-4.8 26.03-6.85 27.7-8.9 28.58-11.6 29.45-14.3 29.45-17.35L29.45-17.35Q29.45-22.25 27.85-25.65 26.25-29.05 23.03-30.85 19.8-32.65 15-32.7L15-32.7Q13.35-32.7 12.6-32.13 11.85-31.55 11.65-30.35 11.45-29.15 11.45-27.3L11.45-27.3ZM52 0.8L52 0.8Q48.45 0.8 45.6-0.8 42.75-2.4 41.07-5.28 39.4-8.15 39.4-11.9L39.4-11.9Q39.4-15.95 41.07-19.07 42.75-22.2 45.6-24 48.45-25.8 51.95-25.8L51.95-25.8Q55.5-25.8 58.35-24.18 61.2-22.55 62.87-19.68 64.55-16.8 64.55-13.05L64.55-13.05Q64.55-9.1 62.9-5.95 61.25-2.8 58.42-1 55.6 0.8 52 0.8ZM52.35-1.7L52.35-1.7Q54.75-1.75 56.12-3.2 57.5-4.65 58.1-6.93 58.7-9.2 58.7-11.65L58.7-11.65Q58.7-13.8 58.32-15.88 57.95-17.95 57.15-19.65 56.35-21.35 55.05-22.38 53.75-23.4 51.9-23.35L51.9-23.35Q49.55-23.35 48.07-21.9 46.6-20.45 45.92-18.18 45.25-15.9 45.25-13.35L45.25-13.35Q45.25-10.4 46-7.75 46.75-5.1 48.32-3.4 49.9-1.7 52.35-1.7ZM80.65 0.8L80.65 0.8Q77.3 0.8 74.5-0.73 71.7-2.25 70.02-5.1 68.35-7.95 68.35-12L68.35-12Q68.35-14.7 69.3-17.18 70.25-19.65 71.97-21.6 73.7-23.55 76.07-24.68 78.45-25.8 81.35-25.8L81.35-25.8Q84.3-25.8 86.4-24.9 88.5-24 89.62-22.55 90.75-21.1 90.75-19.4L90.75-19.4Q90.75-18.2 90.05-17.3 89.35-16.4 88.05-16.4L88.05-16.4Q86.6-16.35 86-17.28 85.4-18.2 85.4-19L85.4-19Q85.4-19.45 85.55-20.03 85.7-20.6 86.1-21.05L86.1-21.05Q85.7-22.1 84.8-22.6 83.9-23.1 82.95-23.25 82-23.4 81.35-23.4L81.35-23.4Q78.3-23.35 76.22-20.78 74.15-18.2 74.15-13.35L74.15-13.35Q74.15-10.25 75.07-7.8 76-5.35 77.8-3.9 79.6-2.45 82.1-2.4L82.1-2.4Q84.35-2.4 86.45-3.58 88.55-4.75 89.85-6.55L89.85-6.55 91.45-5.15Q90-2.9 88.12-1.6 86.25-0.3 84.32 0.25 82.4 0.8 80.65 0.8ZM104.34 0.8L104.34 0.8Q103.09 0.8 101.84 0.48 100.59 0.15 99.52-0.83 98.44-1.8 97.84-3.65 97.24-5.5 97.24-8.55L97.24-8.55 97.34-22.2 93.64-22.2 93.64-25Q94.99-25.05 96.39-26 97.79-26.95 98.84-28.55 99.89-30.15 100.29-32L100.29-32 102.64-32 102.64-25 110.34-25 110.34-22.4 102.64-22.3 102.54-8.95Q102.54-7.05 102.87-5.63 103.19-4.2 103.97-3.43 104.74-2.65 106.09-2.65L106.09-2.65Q107.24-2.65 108.47-3.35 109.69-4.05 110.79-5.65L110.79-5.65 112.49-4.15Q111.29-2.4 110.09-1.4 108.89-0.4 107.79 0.08 106.69 0.55 105.79 0.68 104.89 0.8 104.34 0.8ZM126.94 0.8L126.94 0.8Q123.39 0.8 120.54-0.8 117.69-2.4 116.02-5.28 114.34-8.15 114.34-11.9L114.34-11.9Q114.34-15.95 116.02-19.07 117.69-22.2 120.54-24 123.39-25.8 126.89-25.8L126.89-25.8Q130.44-25.8 133.29-24.18 136.14-22.55 137.81-19.68 139.49-16.8 139.49-13.05L139.49-13.05Q139.49-9.1 137.84-5.95 136.19-2.8 133.37-1 130.54 0.8 126.94 0.8ZM127.29-1.7L127.29-1.7Q129.69-1.75 131.06-3.2 132.44-4.65 133.04-6.93 133.64-9.2 133.64-11.65L133.64-11.65Q133.64-13.8 133.27-15.88 132.89-17.95 132.09-19.65 131.29-21.35 129.99-22.38 128.69-23.4 126.84-23.35L126.84-23.35Q124.49-23.35 123.02-21.9 121.54-20.45 120.87-18.18 120.19-15.9 120.19-13.35L120.19-13.35Q120.19-10.4 120.94-7.75 121.69-5.1 123.27-3.4 124.84-1.7 127.29-1.7ZM143.54 0L143.54-2.1Q145.04-2.1 145.64-2.8 146.24-3.5 146.36-4.75 146.49-6 146.49-7.65L146.49-7.65 146.49-18.05Q146.49-18.85 146.51-19.78 146.54-20.7 146.69-21.6L146.69-21.6Q145.84-21.55 144.89-21.53 143.94-21.5 143.14-21.45L143.14-21.45 143.14-24.1 144.84-24.1Q146.94-24.1 148.04-24.55 149.14-25 149.64-25.5L149.64-25.5 151.44-25.5Q151.54-24.8 151.59-23.55 151.64-22.3 151.69-20.75L151.69-20.75Q152.64-22.15 153.89-23.28 155.14-24.4 156.61-25.1 158.09-25.8 159.69-25.8L159.69-25.8Q161.24-25.8 162.36-24.98 163.49-24.15 163.49-22.3L163.49-22.3Q163.49-21.8 163.21-21.15 162.94-20.5 162.31-20.03 161.69-19.55 160.64-19.55L160.64-19.55Q159.59-19.6 158.81-20.35 158.04-21.1 158.09-22.4L158.09-22.4Q156.89-22.4 155.69-21.68 154.49-20.95 153.46-19.75 152.44-18.55 151.74-17.15L151.74-17.15 151.74-6.2Q151.74-5.3 151.71-4.38 151.69-3.45 151.54-2.5L151.54-2.5Q152.34-2.55 153.19-2.58 154.04-2.6 154.74-2.65L154.74-2.65 154.74 0 143.54 0ZM201.83 0L193.88 0Q193.78-0.8 193.73-1.4 193.68-2 193.58-2.65L193.58-2.65Q191.88-0.95 189.93-0.08 187.98 0.8 185.88 0.8L185.88 0.8Q182.28 0.8 180.46-0.98 178.63-2.75 178.63-5.4L178.63-5.4Q178.63-7.7 179.98-9.4 181.33-11.1 183.53-12.18 185.73-13.25 188.33-13.78 190.93-14.3 193.43-14.3L193.43-14.3 193.43-17.25Q193.43-18.85 193.13-20.23 192.83-21.6 191.91-22.48 190.98-23.35 189.03-23.35L189.03-23.35Q187.73-23.4 186.43-22.88 185.13-22.35 184.43-21.15L184.43-21.15Q184.83-20.75 184.96-20.23 185.08-19.7 185.08-19.25L185.08-19.25Q185.08-18.55 184.48-17.68 183.88-16.8 182.43-16.85L182.43-16.85Q181.23-16.85 180.61-17.68 179.98-18.5 179.98-19.6L179.98-19.6Q179.98-21.4 181.31-22.8 182.63-24.2 184.93-25 187.23-25.8 190.08-25.8L190.08-25.8Q194.38-25.8 196.51-23.55 198.63-21.3 198.63-16.45L198.63-16.45Q198.63-14.65 198.63-13 198.63-11.35 198.61-9.7 198.58-8.05 198.58-6.2L198.58-6.2Q198.58-5.45 198.53-4.5 198.48-3.55 198.38-2.5L198.38-2.5Q199.23-2.55 200.13-2.6 201.03-2.65 201.83-2.65L201.83-2.65 201.83 0ZM193.43-12L193.43-12Q191.83-11.9 190.16-11.55 188.48-11.2 187.13-10.5 185.78-9.8 184.96-8.7 184.13-7.6 184.13-6.05L184.13-6.05Q184.23-4.35 185.26-3.55 186.28-2.75 187.68-2.75L187.68-2.75Q189.43-2.75 190.78-3.43 192.13-4.1 193.43-5.3L193.43-5.3Q193.38-5.85 193.38-6.43 193.38-7 193.38-7.65L193.38-7.65Q193.38-8.1 193.41-9.33 193.43-10.55 193.43-12ZM215.78 12.75L204.63 12.75 204.63 10.65Q206.13 10.65 206.73 9.95 207.33 9.25 207.46 8 207.58 6.75 207.58 5.1L207.58 5.1 207.63-18.05Q207.63-18.85 207.68-19.78 207.73-20.7 207.83-21.6L207.83-21.6Q206.98-21.55 206.03-21.53 205.08-21.5 204.28-21.45L204.28-21.45 204.28-24.1Q206.53-24.1 207.81-24.33 209.08-24.55 209.76-24.85 210.43-25.15 210.78-25.5L210.78-25.5 212.58-25.5Q212.63-25 212.68-24.3 212.73-23.6 212.78-22.9L212.78-22.9Q214.38-24.3 216.33-25.05 218.28-25.8 220.23-25.8L220.23-25.8Q223.13-25.8 225.56-24.28 227.98-22.75 229.46-19.95 230.93-17.15 230.93-13.3L230.93-13.3Q230.93-9.15 229.23-5.95 227.53-2.75 224.66-0.98 221.78 0.8 218.28 0.8L218.28 0.8Q216.68 0.8 215.33 0.43 213.98 0.05 212.78-0.6L212.78-0.6 212.78 6.55Q212.78 7.45 212.76 8.38 212.73 9.3 212.63 10.25L212.63 10.25Q213.43 10.2 214.26 10.18 215.08 10.15 215.78 10.1L215.78 10.1 215.78 12.75ZM217.93-1.8L217.93-1.8Q220.33-1.8 221.91-3.23 223.48-4.65 224.26-7.08 225.03-9.5 225.03-12.55L225.03-12.55Q225.03-15.1 224.33-17.43 223.63-19.75 222.11-21.23 220.58-22.7 218.13-22.65L218.13-22.65Q216.58-22.65 215.18-21.9 213.78-21.15 212.83-20.05L212.83-20.05Q212.83-19.4 212.86-18.65 212.88-17.9 212.88-16.78 212.88-15.65 212.88-13.93 212.88-12.2 212.86-9.63 212.83-7.05 212.83-3.4L212.83-3.4Q213.83-2.65 215.16-2.2 216.48-1.75 217.93-1.8ZM245.68 12.75L234.53 12.75 234.53 10.65Q236.03 10.65 236.63 9.95 237.23 9.25 237.35 8 237.48 6.75 237.48 5.1L237.48 5.1 237.53-18.05Q237.53-18.85 237.58-19.78 237.63-20.7 237.73-21.6L237.73-21.6Q236.88-21.55 235.93-21.53 234.98-21.5 234.18-21.45L234.18-21.45 234.18-24.1Q236.43-24.1 237.7-24.33 238.98-24.55 239.65-24.85 240.33-25.15 240.68-25.5L240.68-25.5 242.48-25.5Q242.53-25 242.58-24.3 242.63-23.6 242.68-22.9L242.68-22.9Q244.28-24.3 246.23-25.05 248.18-25.8 250.13-25.8L250.13-25.8Q253.03-25.8 255.45-24.28 257.88-22.75 259.35-19.95 260.83-17.15 260.83-13.3L260.83-13.3Q260.83-9.15 259.13-5.95 257.43-2.75 254.55-0.98 251.68 0.8 248.18 0.8L248.18 0.8Q246.58 0.8 245.23 0.43 243.88 0.05 242.68-0.6L242.68-0.6 242.68 6.55Q242.68 7.45 242.65 8.38 242.63 9.3 242.53 10.25L242.53 10.25Q243.33 10.2 244.15 10.18 244.98 10.15 245.68 10.1L245.68 10.1 245.68 12.75ZM247.83-1.8L247.83-1.8Q250.23-1.8 251.8-3.23 253.38-4.65 254.15-7.08 254.93-9.5 254.93-12.55L254.93-12.55Q254.93-15.1 254.23-17.43 253.53-19.75 252-21.23 250.48-22.7 248.03-22.65L248.03-22.65Q246.48-22.65 245.08-21.9 243.68-21.15 242.73-20.05L242.73-20.05Q242.73-19.4 242.75-18.65 242.78-17.9 242.78-16.78 242.78-15.65 242.78-13.93 242.78-12.2 242.75-9.63 242.73-7.05 242.73-3.4L242.73-3.4Q243.73-2.65 245.05-2.2 246.38-1.75 247.83-1.8ZM277.23 0.8L277.23 0.8Q273.68 0.8 270.83-0.8 267.98-2.4 266.3-5.28 264.63-8.15 264.63-11.9L264.63-11.9Q264.63-15.95 266.3-19.07 267.98-22.2 270.83-24 273.68-25.8 277.18-25.8L277.18-25.8Q280.73-25.8 283.58-24.18 286.43-22.55 288.1-19.68 289.78-16.8 289.78-13.05L289.78-13.05Q289.78-9.1 288.13-5.95 286.48-2.8 283.65-1 280.83 0.8 277.23 0.8ZM277.58-1.7L277.58-1.7Q279.98-1.75 281.35-3.2 282.73-4.65 283.33-6.93 283.93-9.2 283.93-11.65L283.93-11.65Q283.93-13.8 283.55-15.88 283.18-17.95 282.38-19.65 281.58-21.35 280.28-22.38 278.98-23.4 277.13-23.35L277.13-23.35Q274.78-23.35 273.3-21.9 271.83-20.45 271.15-18.18 270.48-15.9 270.48-13.35L270.48-13.35Q270.48-10.4 271.23-7.75 271.98-5.1 273.55-3.4 275.13-1.7 277.58-1.7ZM293.82 0L293.82-2.1Q295.32-2.1 295.92-2.8 296.52-3.5 296.65-4.75 296.77-6 296.77-7.65L296.77-7.65 296.77-18Q296.77-18.85 296.82-19.73 296.87-20.6 296.97-21.6L296.97-21.6Q296.12-21.55 295.17-21.53 294.22-21.5 293.42-21.45L293.42-21.45 293.42-24.1Q295.67-24.1 297-24.33 298.32-24.55 299.05-24.85 299.77-25.15 300.12-25.5L300.12-25.5 302.02-25.5 302.02-6.2Q302.02-5.3 301.97-4.38 301.92-3.45 301.82-2.5L301.82-2.5Q302.62-2.55 303.45-2.58 304.27-2.6 304.97-2.65L304.97-2.65 304.97 0 293.82 0ZM299.17-30.1L299.17-30.1Q297.87-30.1 296.97-31.08 296.07-32.05 296.07-33.45L296.07-33.45Q296.07-34.85 297.02-35.83 297.97-36.8 299.17-36.8L299.17-36.8Q300.47-36.8 301.35-35.83 302.22-34.85 302.22-33.45L302.22-33.45Q302.22-32.05 301.35-31.08 300.47-30.1 299.17-30.1ZM319.77 0L308.62 0 308.62-2.1Q310.12-2.1 310.72-2.8 311.32-3.5 311.45-4.75 311.57-6 311.57-7.65L311.57-7.65 311.62-18.05Q311.62-18.85 311.65-19.78 311.67-20.7 311.82-21.6L311.82-21.6Q310.92-21.55 310-21.53 309.07-21.5 308.27-21.45L308.27-21.45 308.27-24.1Q310.52-24.1 311.8-24.33 313.07-24.55 313.75-24.85 314.42-25.15 314.77-25.5L314.77-25.5 316.57-25.5Q316.62-25.05 316.65-24.65 316.67-24.25 316.7-23.8 316.72-23.35 316.77-22.65L316.77-22.65Q317.87-23.55 319.17-24.25 320.47-24.95 321.9-25.38 323.32-25.8 324.62-25.8L324.62-25.8Q329.07-25.8 331.05-23.1 333.02-20.4 333.02-14.65L333.02-14.65 333.02-6.2Q333.02-5.3 332.97-4.38 332.92-3.45 332.82-2.5L332.82-2.5Q333.62-2.55 334.45-2.58 335.27-2.6 335.97-2.65L335.97-2.65 335.97 0 324.82 0 324.82-2.1Q326.32-2.1 326.92-2.8 327.52-3.5 327.65-4.75 327.77-6 327.77-7.65L327.77-7.65 327.77-14.65Q327.72-18.6 326.5-20.6 325.27-22.6 322.57-22.55L322.57-22.55Q320.97-22.55 319.42-21.75 317.87-20.95 316.82-19.8L316.82-19.8Q316.82-19.3 316.82-18.73 316.82-18.15 316.82-17.55L316.82-17.55 316.82-6.2Q316.82-5.3 316.77-4.38 316.72-3.45 316.62-2.5L316.62-2.5Q317.42-2.55 318.25-2.58 319.07-2.6 319.77-2.65L319.77-2.65 319.77 0ZM348.62 0.8L348.62 0.8Q347.37 0.8 346.12 0.48 344.87 0.15 343.79-0.83 342.72-1.8 342.12-3.65 341.52-5.5 341.52-8.55L341.52-8.55 341.62-22.2 337.92-22.2 337.92-25Q339.27-25.05 340.67-26 342.07-26.95 343.12-28.55 344.17-30.15 344.57-32L344.57-32 346.92-32 346.92-25 354.62-25 354.62-22.4 346.92-22.3 346.82-8.95Q346.82-7.05 347.14-5.63 347.47-4.2 348.24-3.43 349.02-2.65 350.37-2.65L350.37-2.65Q351.52-2.65 352.74-3.35 353.97-4.05 355.07-5.65L355.07-5.65 356.77-4.15Q355.57-2.4 354.37-1.4 353.17-0.4 352.07 0.08 350.97 0.55 350.07 0.68 349.17 0.8 348.62 0.8ZM369.97 0L358.87 0 358.87-2.1Q360.37-2.1 360.97-2.8 361.57-3.5 361.69-4.75 361.82-6 361.82-7.65L361.82-7.65 361.82-18.05Q361.82-18.85 361.84-19.78 361.87-20.7 362.02-21.6L362.02-21.6Q361.17-21.55 360.22-21.53 359.27-21.5 358.47-21.45L358.47-21.45 358.47-24.1Q360.72-24.1 361.99-24.33 363.27-24.55 363.94-24.85 364.62-25.15 364.97-25.5L364.97-25.5 366.77-25.5Q366.87-25 366.89-24.33 366.92-23.65 366.97-22.9L366.97-22.9Q368.52-24.2 370.49-25 372.47-25.8 374.32-25.8L374.32-25.8Q376.77-25.8 378.39-24.93 380.02-24.05 380.97-22.45L380.97-22.45Q382.72-23.9 384.92-24.85 387.12-25.8 389.22-25.8L389.22-25.8Q393.47-25.8 395.52-23.28 397.57-20.75 397.52-14.85L397.52-14.85 397.47-6.2Q397.47-5.3 397.44-4.38 397.42-3.45 397.27-2.5L397.27-2.5Q398.07-2.55 398.92-2.58 399.77-2.6 400.47-2.65L400.47-2.65 400.47 0 389.47 0 389.47-2.1Q390.87-2.1 391.44-2.8 392.02-3.5 392.14-4.75 392.27-6 392.27-7.65L392.27-7.65 392.27-14.85Q392.22-18.8 390.97-20.65 389.72-22.5 387.17-22.5L387.17-22.5Q385.72-22.5 384.32-21.88 382.92-21.25 381.82-20.3L381.82-20.3Q382.07-19.45 382.19-18.43 382.32-17.4 382.32-16.3L382.32-16.3Q382.27-13.8 382.27-11.28 382.27-8.75 382.27-6.2L382.27-6.2Q382.27-5.3 382.22-4.38 382.17-3.45 382.07-2.5L382.07-2.5Q382.87-2.55 383.69-2.58 384.52-2.6 385.22-2.65L385.22-2.65 385.22 0 374.12 0 374.12-2.1Q375.62-2.1 376.19-2.8 376.77-3.5 376.89-4.75 377.02-6 377.02-7.65L377.02-7.65 377.02-14.9Q377.07-18.85 375.89-20.73 374.72-22.6 372.17-22.55L372.17-22.55Q370.72-22.55 369.37-21.93 368.02-21.3 367.02-20.35L367.02-20.35Q367.02-19.75 367.04-19.1 367.07-18.45 367.07-17.7L367.07-17.7 367.07-6.2Q367.07-5.3 367.02-4.38 366.97-3.45 366.87-2.5L366.87-2.5Q367.67-2.55 368.47-2.58 369.27-2.6 369.97-2.65L369.97-2.65 369.97 0ZM416.01 0.8L416.01 0.8Q412.51 0.8 409.74-0.83 406.96-2.45 405.36-5.43 403.76-8.4 403.76-12.45L403.76-12.45Q403.76-15.95 405.34-19 406.91-22.05 409.76-23.93 412.61-25.8 416.36-25.8L416.36-25.8Q418.46-25.8 420.34-25.15 422.21-24.5 423.69-23.13 425.16-21.75 426.01-19.58 426.86-17.4 426.86-14.3L426.86-14.3 409.66-14Q409.66-10.6 410.44-7.95 411.21-5.3 412.96-3.85 414.71-2.4 417.51-2.4L417.51-2.4Q418.86-2.4 420.39-2.88 421.91-3.35 423.29-4.25 424.66-5.15 425.61-6.4L425.61-6.4 427.16-5.05Q425.66-2.8 423.71-1.53 421.76-0.25 419.74 0.28 417.71 0.8 416.01 0.8ZM409.86-16.6L409.86-16.6 421.41-16.6Q421.41-18.5 420.89-20.03 420.36-21.55 419.26-22.45 418.16-23.35 416.46-23.35L416.46-23.35Q413.81-23.35 412.11-21.68 410.41-20 409.86-16.6ZM442.21 0L431.06 0 431.06-2.1Q432.56-2.1 433.16-2.8 433.76-3.5 433.89-4.75 434.01-6 434.01-7.65L434.01-7.65 434.06-18.05Q434.06-18.85 434.09-19.78 434.11-20.7 434.26-21.6L434.26-21.6Q433.36-21.55 432.44-21.53 431.51-21.5 430.71-21.45L430.71-21.45 430.71-24.1Q432.96-24.1 434.24-24.33 435.51-24.55 436.19-24.85 436.86-25.15 437.21-25.5L437.21-25.5 439.01-25.5Q439.06-25.05 439.09-24.65 439.11-24.25 439.14-23.8 439.16-23.35 439.21-22.65L439.21-22.65Q440.31-23.55 441.61-24.25 442.91-24.95 444.34-25.38 445.76-25.8 447.06-25.8L447.06-25.8Q451.51-25.8 453.49-23.1 455.46-20.4 455.46-14.65L455.46-14.65 455.46-6.2Q455.46-5.3 455.41-4.38 455.36-3.45 455.26-2.5L455.26-2.5Q456.06-2.55 456.89-2.58 457.71-2.6 458.41-2.65L458.41-2.65 458.41 0 447.26 0 447.26-2.1Q448.76-2.1 449.36-2.8 449.96-3.5 450.09-4.75 450.21-6 450.21-7.65L450.21-7.65 450.21-14.65Q450.16-18.6 448.94-20.6 447.71-22.6 445.01-22.55L445.01-22.55Q443.41-22.55 441.86-21.75 440.31-20.95 439.26-19.8L439.26-19.8Q439.26-19.3 439.26-18.73 439.26-18.15 439.26-17.55L439.26-17.55 439.26-6.2Q439.26-5.3 439.21-4.38 439.16-3.45 439.06-2.5L439.06-2.5Q439.86-2.55 440.69-2.58 441.51-2.6 442.21-2.65L442.21-2.65 442.21 0ZM471.06 0.8L471.06 0.8Q469.81 0.8 468.56 0.48 467.31 0.15 466.23-0.83 465.16-1.8 464.56-3.65 463.96-5.5 463.96-8.55L463.96-8.55 464.06-22.2 460.36-22.2 460.36-25Q461.71-25.05 463.11-26 464.51-26.95 465.56-28.55 466.61-30.15 467.01-32L467.01-32 469.36-32 469.36-25 477.06-25 477.06-22.4 469.36-22.3 469.26-8.95Q469.26-7.05 469.58-5.63 469.91-4.2 470.68-3.43 471.46-2.65 472.81-2.65L472.81-2.65Q473.96-2.65 475.18-3.35 476.41-4.05 477.51-5.65L477.51-5.65 479.21-4.15Q478.01-2.4 476.81-1.4 475.61-0.4 474.51 0.08 473.41 0.55 472.51 0.68 471.61 0.8 471.06 0.8ZM497.6-25L497.6-26.2Q497.6-31.9 499.83-34.9 502.05-37.9 506.85-37.9L506.85-37.9Q508.35-37.9 509.65-37.43 510.95-36.95 511.75-36.08 512.55-35.2 512.55-34L512.55-34Q512.55-32.9 511.93-32.15 511.3-31.4 510.15-31.35L510.15-31.35Q508.85-31.3 508.28-32.1 507.7-32.9 507.7-33.7L507.7-33.7Q507.7-33.95 507.73-34.25 507.75-34.55 507.9-34.85L507.9-34.85Q507.55-35.25 507.03-35.4 506.5-35.55 506.05-35.55L506.05-35.55Q504.75-35.55 504.05-34.8 503.35-34.05 503.05-32.9 502.75-31.75 502.75-30.55L502.75-30.55 502.75-25 509.15-25 509.15-22.4 502.8-22.25 502.85-6.25Q502.85-5.35 502.8-4.4 502.75-3.45 502.65-2.5L502.65-2.5Q503.45-2.55 504.33-2.58 505.2-2.6 505.9-2.65L505.9-2.65 505.9 0 494.65 0 494.65-2.1Q496.15-2.1 496.75-2.8 497.35-3.5 497.48-4.75 497.6-6 497.6-7.65L497.6-7.65 497.6-22.2 493.65-22.1 493.65-25 497.6-25ZM534.95 0L527 0Q526.9-0.8 526.85-1.4 526.8-2 526.7-2.65L526.7-2.65Q525-0.95 523.05-0.08 521.1 0.8 519 0.8L519 0.8Q515.4 0.8 513.58-0.98 511.75-2.75 511.75-5.4L511.75-5.4Q511.75-7.7 513.1-9.4 514.45-11.1 516.65-12.18 518.85-13.25 521.45-13.78 524.05-14.3 526.55-14.3L526.55-14.3 526.55-17.25Q526.55-18.85 526.25-20.23 525.95-21.6 525.03-22.48 524.1-23.35 522.15-23.35L522.15-23.35Q520.85-23.4 519.55-22.88 518.25-22.35 517.55-21.15L517.55-21.15Q517.95-20.75 518.08-20.23 518.2-19.7 518.2-19.25L518.2-19.25Q518.2-18.55 517.6-17.68 517-16.8 515.55-16.85L515.55-16.85Q514.35-16.85 513.73-17.68 513.1-18.5 513.1-19.6L513.1-19.6Q513.1-21.4 514.43-22.8 515.75-24.2 518.05-25 520.35-25.8 523.2-25.8L523.2-25.8Q527.5-25.8 529.63-23.55 531.75-21.3 531.75-16.45L531.75-16.45Q531.75-14.65 531.75-13 531.75-11.35 531.73-9.7 531.7-8.05 531.7-6.2L531.7-6.2Q531.7-5.45 531.65-4.5 531.6-3.55 531.5-2.5L531.5-2.5Q532.35-2.55 533.25-2.6 534.15-2.65 534.95-2.65L534.95-2.65 534.95 0ZM526.55-12L526.55-12Q524.95-11.9 523.28-11.55 521.6-11.2 520.25-10.5 518.9-9.8 518.08-8.7 517.25-7.6 517.25-6.05L517.25-6.05Q517.35-4.35 518.38-3.55 519.4-2.75 520.8-2.75L520.8-2.75Q522.55-2.75 523.9-3.43 525.25-4.1 526.55-5.3L526.55-5.3Q526.5-5.85 526.5-6.43 526.5-7 526.5-7.65L526.5-7.65Q526.5-8.1 526.53-9.33 526.55-10.55 526.55-12ZM548.85 0.8L548.85 0.8Q546.5 0.8 544.5 0.18 542.5-0.45 541.3-1.3L541.3-1.3 541.45 0.35 538.8 0.35 538.55-8.25 540.65-8.25Q540.75-6.4 541.8-4.9 542.85-3.4 544.52-2.55 546.2-1.7 548.15-1.7L548.15-1.7Q549.3-1.7 550.4-2.08 551.5-2.45 552.25-3.23 553-4 553-5.15L553-5.15Q553-6.4 552.22-7.23 551.45-8.05 550.12-8.7 548.8-9.35 547.1-10L547.1-10Q545.6-10.6 544.07-11.25 542.55-11.9 541.25-12.8 539.95-13.7 539.2-15.03 538.45-16.35 538.45-18.3L538.45-18.3Q538.45-19.45 538.9-20.78 539.35-22.1 540.35-23.23 541.35-24.35 543.05-25.08 544.75-25.8 547.25-25.8L547.25-25.8Q548.6-25.8 550.27-25.35 551.95-24.9 553.4-23.8L553.4-23.8 553.35-25.55 556-25.55 556-16.75 553.85-16.75Q553.7-18.5 552.92-20 552.15-21.5 550.75-22.45 549.35-23.4 547.35-23.4L547.35-23.4Q545.4-23.4 544.17-22.43 542.95-21.45 542.95-20L542.95-20Q542.95-18.55 543.87-17.65 544.8-16.75 546.3-16.1 547.8-15.45 549.55-14.8L549.55-14.8Q551.65-13.95 553.5-12.95 555.35-11.95 556.5-10.45 557.65-8.95 557.65-6.65L557.65-6.65Q557.65-4.15 556.37-2.48 555.1-0.8 553.1 0 551.1 0.8 548.85 0.8ZM571.25 0.8L571.25 0.8Q570 0.8 568.75 0.48 567.5 0.15 566.42-0.83 565.35-1.8 564.75-3.65 564.15-5.5 564.15-8.55L564.15-8.55 564.25-22.2 560.55-22.2 560.55-25Q561.9-25.05 563.3-26 564.7-26.95 565.75-28.55 566.8-30.15 567.2-32L567.2-32 569.55-32 569.55-25 577.25-25 577.25-22.4 569.55-22.3 569.45-8.95Q569.45-7.05 569.77-5.63 570.1-4.2 570.87-3.43 571.65-2.65 573-2.65L573-2.65Q574.15-2.65 575.37-3.35 576.6-4.05 577.7-5.65L577.7-5.65 579.4-4.15Q578.2-2.4 577-1.4 575.8-0.4 574.7 0.08 573.6 0.55 572.7 0.68 571.8 0.8 571.25 0.8ZM605.89 0.8L605.89 0.8Q603.69 0.8 601.59 0.28 599.49-0.25 597.79-1.43 596.09-2.6 595.09-4.42 594.09-6.25 594.09-8.85L594.09-8.85Q594.09-12.1 596.24-14.63 598.39-17.15 601.89-18.6L601.89-18.6Q600.44-20.4 599.59-21.93 598.74-23.45 598.36-24.9 597.99-26.35 597.99-27.8L597.99-27.8Q598.04-31.5 600.64-33.65 603.24-35.8 607.34-35.8L607.34-35.8Q609.94-35.8 611.84-34.83 613.74-33.85 614.79-32.2 615.84-30.55 615.84-28.5L615.84-28.5Q615.84-26.6 614.96-24.85 614.09-23.1 612.34-21.58 610.59-20.05 607.94-18.65L607.94-18.65Q608.94-17.65 610.41-16.1 611.89-14.55 613.59-12.88 615.29-11.2 616.84-9.75L616.84-9.75Q617.04-10.55 617.14-11.3 617.24-12.05 617.24-12.7L617.24-12.7Q617.24-13.95 616.91-14.98 616.59-16 615.86-16.63 615.14-17.25 613.84-17.3L613.84-17.3 613.84-19.5 622.44-19.5 622.44-16.85 618.79-17.05Q619.39-16.4 619.66-15.45 619.94-14.5 619.99-13.25L619.99-13.25Q620.04-12.15 619.79-10.73 619.54-9.3 618.99-7.8L618.99-7.8Q619.44-7.4 619.91-6.98 620.39-6.55 620.94-6.1L620.94-6.1Q623.09-4.2 624.69-3.2 626.29-2.2 627.19-2.2L627.19-2.2 627.19 0 622.29 0Q621.84 0 620.34-0.88 618.84-1.75 616.54-3.7L616.54-3.7Q614.79-1.8 612.16-0.5 609.54 0.8 605.89 0.8ZM606.79-2.05L606.79-2.05Q609.54-2 611.44-2.95 613.34-3.9 614.59-5.4L614.59-5.4Q614.14-5.8 613.71-6.23 613.29-6.65 612.79-7.05L612.79-7.05Q609.59-10.15 607.29-12.45 604.99-14.75 603.24-16.7L603.24-16.7Q601.89-15.8 601.11-14.53 600.34-13.25 600.01-11.98 599.69-10.7 599.69-9.75L599.69-9.75Q599.69-7.15 600.66-5.48 601.64-3.8 603.26-2.95 604.89-2.1 606.79-2.05ZM606.49-20.3L606.49-20.3Q608.99-22.05 610.19-24.28 611.39-26.5 611.39-28.5L611.39-28.5Q611.39-30.7 610.26-32.13 609.14-33.55 607.09-33.55L607.09-33.55Q605.29-33.55 604.04-32.15 602.79-30.75 602.79-28.15L602.79-28.15Q602.79-26.25 603.84-24.18 604.89-22.1 606.49-20.3ZM652.78 0.8L652.78 0.8Q650.43 0.8 648.43 0.18 646.43-0.45 645.23-1.3L645.23-1.3 645.38 0.35 642.73 0.35 642.48-8.25 644.58-8.25Q644.68-6.4 645.73-4.9 646.78-3.4 648.46-2.55 650.13-1.7 652.08-1.7L652.08-1.7Q653.23-1.7 654.33-2.08 655.43-2.45 656.18-3.23 656.93-4 656.93-5.15L656.93-5.15Q656.93-6.4 656.16-7.23 655.38-8.05 654.06-8.7 652.73-9.35 651.03-10L651.03-10Q649.53-10.6 648.01-11.25 646.48-11.9 645.18-12.8 643.88-13.7 643.13-15.03 642.38-16.35 642.38-18.3L642.38-18.3Q642.38-19.45 642.83-20.78 643.28-22.1 644.28-23.23 645.28-24.35 646.98-25.08 648.68-25.8 651.18-25.8L651.18-25.8Q652.53-25.8 654.21-25.35 655.88-24.9 657.33-23.8L657.33-23.8 657.28-25.55 659.93-25.55 659.93-16.75 657.78-16.75Q657.63-18.5 656.86-20 656.08-21.5 654.68-22.45 653.28-23.4 651.28-23.4L651.28-23.4Q649.33-23.4 648.11-22.43 646.88-21.45 646.88-20L646.88-20Q646.88-18.55 647.81-17.65 648.73-16.75 650.23-16.1 651.73-15.45 653.48-14.8L653.48-14.8Q655.58-13.95 657.43-12.95 659.28-11.95 660.43-10.45 661.58-8.95 661.58-6.65L661.58-6.65Q661.58-4.15 660.31-2.48 659.03-0.8 657.03 0 655.03 0.8 652.78 0.8ZM688.33 0L680.38 0Q680.28-0.8 680.23-1.4 680.18-2 680.08-2.65L680.08-2.65Q678.38-0.95 676.43-0.08 674.48 0.8 672.38 0.8L672.38 0.8Q668.78 0.8 666.96-0.98 665.13-2.75 665.13-5.4L665.13-5.4Q665.13-7.7 666.48-9.4 667.83-11.1 670.03-12.18 672.23-13.25 674.83-13.78 677.43-14.3 679.93-14.3L679.93-14.3 679.93-17.25Q679.93-18.85 679.63-20.23 679.33-21.6 678.41-22.48 677.48-23.35 675.53-23.35L675.53-23.35Q674.23-23.4 672.93-22.88 671.63-22.35 670.93-21.15L670.93-21.15Q671.33-20.75 671.46-20.23 671.58-19.7 671.58-19.25L671.58-19.25Q671.58-18.55 670.98-17.68 670.38-16.8 668.93-16.85L668.93-16.85Q667.73-16.85 667.11-17.68 666.48-18.5 666.48-19.6L666.48-19.6Q666.48-21.4 667.81-22.8 669.13-24.2 671.43-25 673.73-25.8 676.58-25.8L676.58-25.8Q680.88-25.8 683.01-23.55 685.13-21.3 685.13-16.45L685.13-16.45Q685.13-14.65 685.13-13 685.13-11.35 685.11-9.7 685.08-8.05 685.08-6.2L685.08-6.2Q685.08-5.45 685.03-4.5 684.98-3.55 684.88-2.5L684.88-2.5Q685.73-2.55 686.63-2.6 687.53-2.65 688.33-2.65L688.33-2.65 688.33 0ZM679.93-12L679.93-12Q678.33-11.9 676.66-11.55 674.98-11.2 673.63-10.5 672.28-9.8 671.46-8.7 670.63-7.6 670.63-6.05L670.63-6.05Q670.73-4.35 671.76-3.55 672.78-2.75 674.18-2.75L674.18-2.75Q675.93-2.75 677.28-3.43 678.63-4.1 679.93-5.3L679.93-5.3Q679.88-5.85 679.88-6.43 679.88-7 679.88-7.65L679.88-7.65Q679.88-8.1 679.91-9.33 679.93-10.55 679.93-12ZM694.73-25L694.73-26.2Q694.73-31.9 696.95-34.9 699.18-37.9 703.98-37.9L703.98-37.9Q705.48-37.9 706.78-37.43 708.08-36.95 708.88-36.08 709.68-35.2 709.68-34L709.68-34Q709.68-32.9 709.05-32.15 708.43-31.4 707.28-31.35L707.28-31.35Q705.98-31.3 705.4-32.1 704.83-32.9 704.83-33.7L704.83-33.7Q704.83-33.95 704.85-34.25 704.88-34.55 705.03-34.85L705.03-34.85Q704.68-35.25 704.15-35.4 703.63-35.55 703.18-35.55L703.18-35.55Q701.88-35.55 701.18-34.8 700.48-34.05 700.18-32.9 699.88-31.75 699.88-30.55L699.88-30.55 699.88-25 706.28-25 706.28-22.4 699.93-22.25 699.98-6.25Q699.98-5.35 699.93-4.4 699.88-3.45 699.78-2.5L699.78-2.5Q700.58-2.55 701.45-2.58 702.33-2.6 703.03-2.65L703.03-2.65 703.03 0 691.78 0 691.78-2.1Q693.28-2.1 693.88-2.8 694.48-3.5 694.6-4.75 694.73-6 694.73-7.65L694.73-7.65 694.73-22.2 690.78-22.1 690.78-25 694.73-25ZM720.73 0.8L720.73 0.8Q717.23 0.8 714.45-0.83 711.68-2.45 710.08-5.43 708.48-8.4 708.48-12.45L708.48-12.45Q708.48-15.95 710.05-19 711.63-22.05 714.48-23.93 717.33-25.8 721.08-25.8L721.08-25.8Q723.18-25.8 725.05-25.15 726.93-24.5 728.4-23.13 729.88-21.75 730.73-19.58 731.58-17.4 731.58-14.3L731.58-14.3 714.38-14Q714.38-10.6 715.15-7.95 715.93-5.3 717.68-3.85 719.43-2.4 722.23-2.4L722.23-2.4Q723.58-2.4 725.1-2.88 726.63-3.35 728-4.25 729.38-5.15 730.33-6.4L730.33-6.4 731.88-5.05Q730.38-2.8 728.43-1.53 726.48-0.25 724.45 0.28 722.43 0.8 720.73 0.8ZM714.58-16.6L714.58-16.6 726.13-16.6Q726.13-18.5 725.6-20.03 725.08-21.55 723.98-22.45 722.88-23.35 721.18-23.35L721.18-23.35Q718.53-23.35 716.83-21.68 715.13-20 714.58-16.6Z" opacity="1" transform="matrix(1,0,0,1,0,0)" fill="#7a26c1" class="undefined-text-1" data-fill-palette-color="secondary" id="text-1"></path></svg></g></svg></g></svg></g></svg></g><g transform="matrix(1,0,0,1,105.2039060680772,0)"><svg viewBox="0 0 185.11218786384558 131.08417133993862" height="131.08417133993862" width="185.11218786384558"><g><svg xmlns="http://www.w3.org/2000/svg" xmlns:xlink="http://www.w3.org/1999/xlink" version="1.1" x="8" y="0" viewBox="4.823 14.981 90.35499999999999 70.037" enable-background="new 0 0 100 100" xml:space="preserve" height="131.08417133993862" width="169.11218786384558" class="icon-icon-0" data-fill-palette-color="accent" id="icon-0"><path fill="#6936f5" d="M71.611 14.981c-9.679 0-17.985 5.842-21.614 14.185-3.628-8.343-11.922-14.185-21.601-14.185-13.023 0-23.573 10.553-23.573 23.57 0 7.755 3.807 14.581 9.58 18.876l35.594 27.591 35.601-27.591c5.78-4.295 9.58-11.121 9.58-18.876C95.178 25.535 84.621 14.981 71.611 14.981zM72.329 53.09H59.881l-3.455-9.343L48.84 67.1l-7.623-17.074-0.762 2.175H27.673v-3.558h10.258l2.886-8.241 7.499 16.795 7.892-24.296 6.152 16.631h9.97V53.09z" data-fill-palette-color="accent"></path></svg></g></svg></g><g><rect width="105.2039060680772" height="4.916033292649412" y="125.1681380472892" x="290.31609393192275" fill="#6936f5" data-fill-palette-color="accent"></rect><rect width="105.2039060680772" height="4.916033292649412" y="125.1681380472892" x="0" fill="#6936f5" data-fill-palette-color="accent"></rect><rect width="105.2039060680772" height="4.916033292649412" y="115.33607146199039" x="290.31609393192275" fill="#6936f5" data-fill-palette-color="accent"></rect><rect width="105.2039060680772" height="4.916033292649412" y="115.33607146199039" x="0" fill="#6936f5" data-fill-palette-color="accent"></rect></g></svg></g><defs></defs></svg><rect width="395.52" height="238.80443308651206" fill="none" stroke="none" visibility="hidden"></rect></g></svg></g></svg>